<mxfile host="www.draw.io" modified="2020-02-03T13:27:11.460Z" agent="Mozilla/5.0 (Macintosh; Intel Mac OS X 10_14_6) AppleWebKit/537.36 (KHTML, like Gecko) Chrome/79.0.3945.130 Safari/537.36" etag="1WLfBkJImlSSe8vVsYJS" version="12.6.4" type="github">
  <diagram id="prtHgNgQTEPvFCAcTncT" name="src-decomposition">
    <mxGraphModel dx="988" dy="621" grid="1" gridSize="10" guides="1" tooltips="1" connect="1" arrows="1" fold="1" page="1" pageScale="1" pageWidth="1169" pageHeight="827" math="0" shadow="0">
      <root>
        <mxCell id="0"/>
        <mxCell id="1" parent="0"/>
        <mxCell id="J3iDojfl_nDklo9Nrg6n-16" style="edgeStyle=orthogonalEdgeStyle;rounded=0;orthogonalLoop=1;jettySize=auto;html=1;entryX=0.5;entryY=0;entryDx=0;entryDy=0;" edge="1" parent="1" source="J3iDojfl_nDklo9Nrg6n-1" target="J3iDojfl_nDklo9Nrg6n-2">
          <mxGeometry relative="1" as="geometry"/>
        </mxCell>
        <mxCell id="J3iDojfl_nDklo9Nrg6n-17" style="edgeStyle=orthogonalEdgeStyle;rounded=0;orthogonalLoop=1;jettySize=auto;html=1;entryX=0.5;entryY=0;entryDx=0;entryDy=0;" edge="1" parent="1" source="J3iDojfl_nDklo9Nrg6n-1" target="J3iDojfl_nDklo9Nrg6n-3">
          <mxGeometry relative="1" as="geometry"/>
        </mxCell>
        <mxCell id="J3iDojfl_nDklo9Nrg6n-1" value="src" style="rounded=0;whiteSpace=wrap;html=1;" vertex="1" parent="1">
          <mxGeometry x="100" y="40" width="80" height="40" as="geometry"/>
        </mxCell>
        <mxCell id="J3iDojfl_nDklo9Nrg6n-2" value="amadeus.js&lt;span style=&quot;color: rgba(0 , 0 , 0 , 0) ; font-family: monospace ; font-size: 0px ; white-space: nowrap&quot;&gt;%3CmxGraphModel%3E%3Croot%3E%3CmxCell%20id%3D%220%22%2F%3E%3CmxCell%20id%3D%221%22%20parent%3D%220%22%2F%3E%3CmxCell%20id%3D%222%22%20value%3D%22src%22%20style%3D%22rounded%3D0%3BwhiteSpace%3Dwrap%3Bhtml%3D1%3B%22%20vertex%3D%221%22%20parent%3D%221%22%3E%3CmxGeometry%20x%3D%22280%22%20y%3D%2240%22%20width%3D%2280%22%20height%3D%2240%22%20as%3D%22geometry%22%2F%3E%3C%2FmxCell%3E%3C%2Froot%3E%3C%2FmxGraphModel%3E&lt;/span&gt;" style="rounded=0;whiteSpace=wrap;html=1;" vertex="1" parent="1">
          <mxGeometry x="40" y="120" width="80" height="40" as="geometry"/>
        </mxCell>
        <mxCell id="J3iDojfl_nDklo9Nrg6n-18" style="edgeStyle=orthogonalEdgeStyle;rounded=0;orthogonalLoop=1;jettySize=auto;html=1;entryX=0.5;entryY=0;entryDx=0;entryDy=0;" edge="1" parent="1" source="J3iDojfl_nDklo9Nrg6n-3" target="J3iDojfl_nDklo9Nrg6n-4">
          <mxGeometry relative="1" as="geometry">
            <Array as="points">
              <mxPoint x="200" y="180"/>
              <mxPoint x="80" y="180"/>
            </Array>
          </mxGeometry>
        </mxCell>
        <mxCell id="J3iDojfl_nDklo9Nrg6n-19" style="edgeStyle=orthogonalEdgeStyle;rounded=0;orthogonalLoop=1;jettySize=auto;html=1;entryX=0.5;entryY=0;entryDx=0;entryDy=0;" edge="1" parent="1" source="J3iDojfl_nDklo9Nrg6n-3" target="J3iDojfl_nDklo9Nrg6n-5">
          <mxGeometry relative="1" as="geometry"/>
        </mxCell>
        <mxCell id="J3iDojfl_nDklo9Nrg6n-20" style="edgeStyle=orthogonalEdgeStyle;rounded=0;orthogonalLoop=1;jettySize=auto;html=1;entryX=0.5;entryY=0;entryDx=0;entryDy=0;" edge="1" parent="1" source="J3iDojfl_nDklo9Nrg6n-3" target="J3iDojfl_nDklo9Nrg6n-6">
          <mxGeometry relative="1" as="geometry">
            <Array as="points">
              <mxPoint x="200" y="180"/>
              <mxPoint x="860" y="180"/>
            </Array>
          </mxGeometry>
        </mxCell>
        <mxCell id="J3iDojfl_nDklo9Nrg6n-3" value="amadeus" style="rounded=0;whiteSpace=wrap;html=1;" vertex="1" parent="1">
          <mxGeometry x="160" y="120" width="80" height="40" as="geometry"/>
        </mxCell>
        <mxCell id="J3iDojfl_nDklo9Nrg6n-4" value="client.js" style="rounded=0;whiteSpace=wrap;html=1;" vertex="1" parent="1">
          <mxGeometry x="40" y="200" width="80" height="40" as="geometry"/>
        </mxCell>
        <mxCell id="J3iDojfl_nDklo9Nrg6n-23" style="edgeStyle=orthogonalEdgeStyle;rounded=0;orthogonalLoop=1;jettySize=auto;html=1;entryX=1;entryY=0.5;entryDx=0;entryDy=0;" edge="1" parent="1" source="J3iDojfl_nDklo9Nrg6n-5" target="J3iDojfl_nDklo9Nrg6n-7">
          <mxGeometry relative="1" as="geometry"/>
        </mxCell>
        <mxCell id="J3iDojfl_nDklo9Nrg6n-24" style="edgeStyle=orthogonalEdgeStyle;rounded=0;orthogonalLoop=1;jettySize=auto;html=1;entryX=1;entryY=0.5;entryDx=0;entryDy=0;" edge="1" parent="1" source="J3iDojfl_nDklo9Nrg6n-5" target="J3iDojfl_nDklo9Nrg6n-10">
          <mxGeometry relative="1" as="geometry"/>
        </mxCell>
        <mxCell id="J3iDojfl_nDklo9Nrg6n-25" style="edgeStyle=orthogonalEdgeStyle;rounded=0;orthogonalLoop=1;jettySize=auto;html=1;entryX=1;entryY=0.5;entryDx=0;entryDy=0;" edge="1" parent="1" source="J3iDojfl_nDklo9Nrg6n-5" target="J3iDojfl_nDklo9Nrg6n-11">
          <mxGeometry relative="1" as="geometry"/>
        </mxCell>
        <mxCell id="J3iDojfl_nDklo9Nrg6n-26" style="edgeStyle=orthogonalEdgeStyle;rounded=0;orthogonalLoop=1;jettySize=auto;html=1;entryX=1;entryY=0.5;entryDx=0;entryDy=0;" edge="1" parent="1" source="J3iDojfl_nDklo9Nrg6n-5" target="J3iDojfl_nDklo9Nrg6n-12">
          <mxGeometry relative="1" as="geometry"/>
        </mxCell>
        <mxCell id="J3iDojfl_nDklo9Nrg6n-27" style="edgeStyle=orthogonalEdgeStyle;rounded=0;orthogonalLoop=1;jettySize=auto;html=1;entryX=0;entryY=0.5;entryDx=0;entryDy=0;" edge="1" parent="1" source="J3iDojfl_nDklo9Nrg6n-5" target="J3iDojfl_nDklo9Nrg6n-13">
          <mxGeometry relative="1" as="geometry"/>
        </mxCell>
        <mxCell id="J3iDojfl_nDklo9Nrg6n-28" style="edgeStyle=orthogonalEdgeStyle;rounded=0;orthogonalLoop=1;jettySize=auto;html=1;entryX=0;entryY=0.5;entryDx=0;entryDy=0;" edge="1" parent="1" source="J3iDojfl_nDklo9Nrg6n-5" target="J3iDojfl_nDklo9Nrg6n-14">
          <mxGeometry relative="1" as="geometry"/>
        </mxCell>
        <mxCell id="J3iDojfl_nDklo9Nrg6n-29" style="edgeStyle=orthogonalEdgeStyle;rounded=0;orthogonalLoop=1;jettySize=auto;html=1;entryX=0;entryY=0.5;entryDx=0;entryDy=0;" edge="1" parent="1" source="J3iDojfl_nDklo9Nrg6n-5" target="J3iDojfl_nDklo9Nrg6n-15">
          <mxGeometry relative="1" as="geometry"/>
        </mxCell>
        <mxCell id="J3iDojfl_nDklo9Nrg6n-5" value="client" style="rounded=0;whiteSpace=wrap;html=1;" vertex="1" parent="1">
          <mxGeometry x="160" y="200" width="80" height="40" as="geometry"/>
        </mxCell>
        <mxCell id="J3iDojfl_nDklo9Nrg6n-81" style="edgeStyle=orthogonalEdgeStyle;rounded=0;orthogonalLoop=1;jettySize=auto;html=1;" edge="1" parent="1" source="J3iDojfl_nDklo9Nrg6n-6" target="J3iDojfl_nDklo9Nrg6n-30">
          <mxGeometry relative="1" as="geometry">
            <Array as="points">
              <mxPoint x="860" y="260"/>
              <mxPoint x="380" y="260"/>
            </Array>
          </mxGeometry>
        </mxCell>
        <mxCell id="J3iDojfl_nDklo9Nrg6n-82" style="edgeStyle=orthogonalEdgeStyle;rounded=0;orthogonalLoop=1;jettySize=auto;html=1;entryX=0.5;entryY=0;entryDx=0;entryDy=0;" edge="1" parent="1" source="J3iDojfl_nDklo9Nrg6n-6" target="J3iDojfl_nDklo9Nrg6n-31">
          <mxGeometry relative="1" as="geometry">
            <Array as="points">
              <mxPoint x="860" y="260"/>
              <mxPoint x="500" y="260"/>
            </Array>
          </mxGeometry>
        </mxCell>
        <mxCell id="J3iDojfl_nDklo9Nrg6n-83" style="edgeStyle=orthogonalEdgeStyle;rounded=0;orthogonalLoop=1;jettySize=auto;html=1;exitX=0.5;exitY=1;exitDx=0;exitDy=0;" edge="1" parent="1" source="J3iDojfl_nDklo9Nrg6n-6" target="J3iDojfl_nDklo9Nrg6n-32">
          <mxGeometry relative="1" as="geometry">
            <mxPoint x="910" y="240" as="sourcePoint"/>
            <Array as="points">
              <mxPoint x="860" y="260"/>
              <mxPoint x="650" y="260"/>
            </Array>
          </mxGeometry>
        </mxCell>
        <mxCell id="J3iDojfl_nDklo9Nrg6n-84" style="edgeStyle=orthogonalEdgeStyle;rounded=0;orthogonalLoop=1;jettySize=auto;html=1;entryX=0.5;entryY=0;entryDx=0;entryDy=0;exitX=0.5;exitY=1;exitDx=0;exitDy=0;" edge="1" parent="1" source="J3iDojfl_nDklo9Nrg6n-6" target="J3iDojfl_nDklo9Nrg6n-33">
          <mxGeometry relative="1" as="geometry">
            <mxPoint x="910" y="240" as="sourcePoint"/>
            <Array as="points">
              <mxPoint x="860" y="260"/>
              <mxPoint x="760" y="260"/>
            </Array>
          </mxGeometry>
        </mxCell>
        <mxCell id="J3iDojfl_nDklo9Nrg6n-85" style="edgeStyle=orthogonalEdgeStyle;rounded=0;orthogonalLoop=1;jettySize=auto;html=1;entryX=0.5;entryY=0;entryDx=0;entryDy=0;" edge="1" parent="1" source="J3iDojfl_nDklo9Nrg6n-6" target="J3iDojfl_nDklo9Nrg6n-34">
          <mxGeometry relative="1" as="geometry">
            <Array as="points">
              <mxPoint x="860" y="260"/>
              <mxPoint x="960" y="260"/>
            </Array>
          </mxGeometry>
        </mxCell>
        <mxCell id="J3iDojfl_nDklo9Nrg6n-86" style="edgeStyle=orthogonalEdgeStyle;rounded=0;orthogonalLoop=1;jettySize=auto;html=1;" edge="1" parent="1" source="J3iDojfl_nDklo9Nrg6n-6" target="J3iDojfl_nDklo9Nrg6n-35">
          <mxGeometry relative="1" as="geometry">
            <Array as="points">
              <mxPoint x="860" y="260"/>
              <mxPoint x="1060" y="260"/>
            </Array>
          </mxGeometry>
        </mxCell>
        <mxCell id="J3iDojfl_nDklo9Nrg6n-87" style="edgeStyle=orthogonalEdgeStyle;rounded=0;orthogonalLoop=1;jettySize=auto;html=1;" edge="1" parent="1" source="J3iDojfl_nDklo9Nrg6n-6" target="J3iDojfl_nDklo9Nrg6n-36">
          <mxGeometry relative="1" as="geometry">
            <Array as="points">
              <mxPoint x="860" y="260"/>
              <mxPoint x="1280" y="260"/>
            </Array>
          </mxGeometry>
        </mxCell>
        <mxCell id="J3iDojfl_nDklo9Nrg6n-88" style="edgeStyle=orthogonalEdgeStyle;rounded=0;orthogonalLoop=1;jettySize=auto;html=1;entryX=0.5;entryY=0;entryDx=0;entryDy=0;" edge="1" parent="1" source="J3iDojfl_nDklo9Nrg6n-6" target="J3iDojfl_nDklo9Nrg6n-37">
          <mxGeometry relative="1" as="geometry">
            <Array as="points">
              <mxPoint x="860" y="260"/>
              <mxPoint x="1380" y="260"/>
            </Array>
          </mxGeometry>
        </mxCell>
        <mxCell id="J3iDojfl_nDklo9Nrg6n-6" value="namespaces" style="rounded=0;whiteSpace=wrap;html=1;" vertex="1" parent="1">
          <mxGeometry x="820" y="200" width="80" height="40" as="geometry"/>
        </mxCell>
        <mxCell id="J3iDojfl_nDklo9Nrg6n-7" value="access_token&lt;br&gt;.js" style="rounded=0;whiteSpace=wrap;html=1;" vertex="1" parent="1">
          <mxGeometry x="100" y="280" width="80" height="40" as="geometry"/>
        </mxCell>
        <mxCell id="J3iDojfl_nDklo9Nrg6n-10" value="errors.js" style="rounded=0;whiteSpace=wrap;html=1;" vertex="1" parent="1">
          <mxGeometry x="100" y="360" width="80" height="40" as="geometry"/>
        </mxCell>
        <mxCell id="J3iDojfl_nDklo9Nrg6n-11" value="listener.js" style="rounded=0;whiteSpace=wrap;html=1;" vertex="1" parent="1">
          <mxGeometry x="100" y="440" width="80" height="40" as="geometry"/>
        </mxCell>
        <mxCell id="J3iDojfl_nDklo9Nrg6n-12" value="pagination.js" style="rounded=0;whiteSpace=wrap;html=1;" vertex="1" parent="1">
          <mxGeometry x="100" y="520" width="80" height="40" as="geometry"/>
        </mxCell>
        <mxCell id="J3iDojfl_nDklo9Nrg6n-13" value="request.js" style="rounded=0;whiteSpace=wrap;html=1;" vertex="1" parent="1">
          <mxGeometry x="220" y="280" width="80" height="40" as="geometry"/>
        </mxCell>
        <mxCell id="J3iDojfl_nDklo9Nrg6n-14" value="response.js" style="rounded=0;whiteSpace=wrap;html=1;" vertex="1" parent="1">
          <mxGeometry x="220" y="360" width="80" height="40" as="geometry"/>
        </mxCell>
        <mxCell id="J3iDojfl_nDklo9Nrg6n-15" value="validator.js" style="rounded=0;whiteSpace=wrap;html=1;" vertex="1" parent="1">
          <mxGeometry x="220" y="440" width="80" height="40" as="geometry"/>
        </mxCell>
        <mxCell id="J3iDojfl_nDklo9Nrg6n-30" value="e_reputation&lt;br&gt;.js" style="rounded=0;whiteSpace=wrap;html=1;" vertex="1" parent="1">
          <mxGeometry x="360" y="280" width="80" height="40" as="geometry"/>
        </mxCell>
        <mxCell id="J3iDojfl_nDklo9Nrg6n-50" style="edgeStyle=orthogonalEdgeStyle;rounded=0;orthogonalLoop=1;jettySize=auto;html=1;" edge="1" parent="1" source="J3iDojfl_nDklo9Nrg6n-31" target="J3iDojfl_nDklo9Nrg6n-41">
          <mxGeometry relative="1" as="geometry"/>
        </mxCell>
        <mxCell id="J3iDojfl_nDklo9Nrg6n-31" value="e_reputation" style="rounded=0;whiteSpace=wrap;html=1;" vertex="1" parent="1">
          <mxGeometry x="460" y="280" width="80" height="40" as="geometry"/>
        </mxCell>
        <mxCell id="J3iDojfl_nDklo9Nrg6n-32" value="reference_&lt;br&gt;data.js" style="rounded=0;whiteSpace=wrap;html=1;" vertex="1" parent="1">
          <mxGeometry x="620" y="280" width="80" height="40" as="geometry"/>
        </mxCell>
        <mxCell id="J3iDojfl_nDklo9Nrg6n-70" style="edgeStyle=orthogonalEdgeStyle;rounded=0;orthogonalLoop=1;jettySize=auto;html=1;entryX=1;entryY=0.5;entryDx=0;entryDy=0;" edge="1" parent="1" source="J3iDojfl_nDklo9Nrg6n-33" target="J3iDojfl_nDklo9Nrg6n-59">
          <mxGeometry relative="1" as="geometry"/>
        </mxCell>
        <mxCell id="J3iDojfl_nDklo9Nrg6n-71" style="edgeStyle=orthogonalEdgeStyle;rounded=0;orthogonalLoop=1;jettySize=auto;html=1;entryX=1;entryY=0.5;entryDx=0;entryDy=0;" edge="1" parent="1" source="J3iDojfl_nDklo9Nrg6n-33" target="J3iDojfl_nDklo9Nrg6n-60">
          <mxGeometry relative="1" as="geometry"/>
        </mxCell>
        <mxCell id="J3iDojfl_nDklo9Nrg6n-72" style="edgeStyle=orthogonalEdgeStyle;rounded=0;orthogonalLoop=1;jettySize=auto;html=1;entryX=1;entryY=0.5;entryDx=0;entryDy=0;" edge="1" parent="1" source="J3iDojfl_nDklo9Nrg6n-33" target="J3iDojfl_nDklo9Nrg6n-61">
          <mxGeometry relative="1" as="geometry"/>
        </mxCell>
        <mxCell id="J3iDojfl_nDklo9Nrg6n-73" style="edgeStyle=orthogonalEdgeStyle;rounded=0;orthogonalLoop=1;jettySize=auto;html=1;entryX=0;entryY=0.5;entryDx=0;entryDy=0;" edge="1" parent="1" source="J3iDojfl_nDklo9Nrg6n-33" target="J3iDojfl_nDklo9Nrg6n-62">
          <mxGeometry relative="1" as="geometry"/>
        </mxCell>
        <mxCell id="J3iDojfl_nDklo9Nrg6n-74" style="edgeStyle=orthogonalEdgeStyle;rounded=0;orthogonalLoop=1;jettySize=auto;html=1;entryX=0;entryY=0.5;entryDx=0;entryDy=0;" edge="1" parent="1" source="J3iDojfl_nDklo9Nrg6n-33" target="J3iDojfl_nDklo9Nrg6n-63">
          <mxGeometry relative="1" as="geometry"/>
        </mxCell>
        <mxCell id="J3iDojfl_nDklo9Nrg6n-75" style="edgeStyle=orthogonalEdgeStyle;rounded=0;orthogonalLoop=1;jettySize=auto;html=1;entryX=0;entryY=0.5;entryDx=0;entryDy=0;" edge="1" parent="1" source="J3iDojfl_nDklo9Nrg6n-33" target="J3iDojfl_nDklo9Nrg6n-64">
          <mxGeometry relative="1" as="geometry"/>
        </mxCell>
        <mxCell id="J3iDojfl_nDklo9Nrg6n-33" value="reference_&lt;br&gt;data" style="rounded=0;whiteSpace=wrap;html=1;" vertex="1" parent="1">
          <mxGeometry x="720" y="280" width="80" height="40" as="geometry"/>
        </mxCell>
        <mxCell id="J3iDojfl_nDklo9Nrg6n-34" value="shopping.js" style="rounded=0;whiteSpace=wrap;html=1;" vertex="1" parent="1">
          <mxGeometry x="920" y="280" width="80" height="40" as="geometry"/>
        </mxCell>
        <mxCell id="J3iDojfl_nDklo9Nrg6n-51" style="edgeStyle=orthogonalEdgeStyle;rounded=0;orthogonalLoop=1;jettySize=auto;html=1;entryX=1;entryY=0.5;entryDx=0;entryDy=0;" edge="1" parent="1" source="J3iDojfl_nDklo9Nrg6n-35" target="J3iDojfl_nDklo9Nrg6n-42">
          <mxGeometry relative="1" as="geometry"/>
        </mxCell>
        <mxCell id="J3iDojfl_nDklo9Nrg6n-52" style="edgeStyle=orthogonalEdgeStyle;rounded=0;orthogonalLoop=1;jettySize=auto;html=1;entryX=1;entryY=0.5;entryDx=0;entryDy=0;" edge="1" parent="1" source="J3iDojfl_nDklo9Nrg6n-35" target="J3iDojfl_nDklo9Nrg6n-43">
          <mxGeometry relative="1" as="geometry"/>
        </mxCell>
        <mxCell id="J3iDojfl_nDklo9Nrg6n-53" style="edgeStyle=orthogonalEdgeStyle;rounded=0;orthogonalLoop=1;jettySize=auto;html=1;entryX=1;entryY=0.5;entryDx=0;entryDy=0;" edge="1" parent="1" source="J3iDojfl_nDklo9Nrg6n-35" target="J3iDojfl_nDklo9Nrg6n-44">
          <mxGeometry relative="1" as="geometry"/>
        </mxCell>
        <mxCell id="J3iDojfl_nDklo9Nrg6n-54" style="edgeStyle=orthogonalEdgeStyle;rounded=0;orthogonalLoop=1;jettySize=auto;html=1;entryX=1;entryY=0.5;entryDx=0;entryDy=0;" edge="1" parent="1" source="J3iDojfl_nDklo9Nrg6n-35" target="J3iDojfl_nDklo9Nrg6n-48">
          <mxGeometry relative="1" as="geometry"/>
        </mxCell>
        <mxCell id="J3iDojfl_nDklo9Nrg6n-55" style="edgeStyle=orthogonalEdgeStyle;rounded=0;orthogonalLoop=1;jettySize=auto;html=1;entryX=0;entryY=0.5;entryDx=0;entryDy=0;" edge="1" parent="1" source="J3iDojfl_nDklo9Nrg6n-35" target="J3iDojfl_nDklo9Nrg6n-45">
          <mxGeometry relative="1" as="geometry"/>
        </mxCell>
        <mxCell id="J3iDojfl_nDklo9Nrg6n-56" style="edgeStyle=orthogonalEdgeStyle;rounded=0;orthogonalLoop=1;jettySize=auto;html=1;entryX=0;entryY=0.5;entryDx=0;entryDy=0;" edge="1" parent="1" source="J3iDojfl_nDklo9Nrg6n-35" target="J3iDojfl_nDklo9Nrg6n-46">
          <mxGeometry relative="1" as="geometry"/>
        </mxCell>
        <mxCell id="J3iDojfl_nDklo9Nrg6n-57" style="edgeStyle=orthogonalEdgeStyle;rounded=0;orthogonalLoop=1;jettySize=auto;html=1;entryX=0;entryY=0.5;entryDx=0;entryDy=0;" edge="1" parent="1" source="J3iDojfl_nDklo9Nrg6n-35" target="J3iDojfl_nDklo9Nrg6n-47">
          <mxGeometry relative="1" as="geometry"/>
        </mxCell>
        <mxCell id="J3iDojfl_nDklo9Nrg6n-35" value="shopping" style="rounded=0;whiteSpace=wrap;html=1;" vertex="1" parent="1">
          <mxGeometry x="1020" y="280" width="80" height="40" as="geometry"/>
        </mxCell>
        <mxCell id="J3iDojfl_nDklo9Nrg6n-36" value="travel.js" style="rounded=0;whiteSpace=wrap;html=1;" vertex="1" parent="1">
          <mxGeometry x="1240" y="280" width="80" height="40" as="geometry"/>
        </mxCell>
        <mxCell id="J3iDojfl_nDklo9Nrg6n-103" style="edgeStyle=orthogonalEdgeStyle;rounded=0;orthogonalLoop=1;jettySize=auto;html=1;entryX=1;entryY=0.5;entryDx=0;entryDy=0;" edge="1" parent="1" source="J3iDojfl_nDklo9Nrg6n-37" target="J3iDojfl_nDklo9Nrg6n-89">
          <mxGeometry relative="1" as="geometry"/>
        </mxCell>
        <mxCell id="J3iDojfl_nDklo9Nrg6n-104" style="edgeStyle=orthogonalEdgeStyle;rounded=0;orthogonalLoop=1;jettySize=auto;html=1;entryX=0;entryY=0.5;entryDx=0;entryDy=0;" edge="1" parent="1" source="J3iDojfl_nDklo9Nrg6n-37" target="J3iDojfl_nDklo9Nrg6n-90">
          <mxGeometry relative="1" as="geometry"/>
        </mxCell>
        <mxCell id="J3iDojfl_nDklo9Nrg6n-105" style="edgeStyle=orthogonalEdgeStyle;rounded=0;orthogonalLoop=1;jettySize=auto;html=1;entryX=0;entryY=0.5;entryDx=0;entryDy=0;" edge="1" parent="1" source="J3iDojfl_nDklo9Nrg6n-37" target="J3iDojfl_nDklo9Nrg6n-91">
          <mxGeometry relative="1" as="geometry"/>
        </mxCell>
        <mxCell id="J3iDojfl_nDklo9Nrg6n-106" style="edgeStyle=orthogonalEdgeStyle;rounded=0;orthogonalLoop=1;jettySize=auto;html=1;entryX=1;entryY=0.5;entryDx=0;entryDy=0;" edge="1" parent="1" source="J3iDojfl_nDklo9Nrg6n-37" target="J3iDojfl_nDklo9Nrg6n-92">
          <mxGeometry relative="1" as="geometry">
            <mxPoint x="1310" y="410" as="targetPoint"/>
          </mxGeometry>
        </mxCell>
        <mxCell id="J3iDojfl_nDklo9Nrg6n-37" value="travel" style="rounded=0;whiteSpace=wrap;html=1;" vertex="1" parent="1">
          <mxGeometry x="1340" y="280" width="80" height="40" as="geometry"/>
        </mxCell>
        <mxCell id="J3iDojfl_nDklo9Nrg6n-41" value="hotel_&lt;br&gt;sentiments.js" style="rounded=0;whiteSpace=wrap;html=1;" vertex="1" parent="1">
          <mxGeometry x="460" y="360" width="80" height="40" as="geometry"/>
        </mxCell>
        <mxCell id="J3iDojfl_nDklo9Nrg6n-42" value="flight_dates.js" style="rounded=0;whiteSpace=wrap;html=1;" vertex="1" parent="1">
          <mxGeometry x="960" y="360" width="80" height="40" as="geometry"/>
        </mxCell>
        <mxCell id="J3iDojfl_nDklo9Nrg6n-43" value="flight_&lt;br&gt;destinations.js" style="rounded=0;whiteSpace=wrap;html=1;" vertex="1" parent="1">
          <mxGeometry x="960" y="440" width="80" height="40" as="geometry"/>
        </mxCell>
        <mxCell id="J3iDojfl_nDklo9Nrg6n-44" value="flight_offers.js" style="rounded=0;whiteSpace=wrap;html=1;" vertex="1" parent="1">
          <mxGeometry x="960" y="520" width="80" height="40" as="geometry"/>
        </mxCell>
        <mxCell id="J3iDojfl_nDklo9Nrg6n-45" value="hotel_offer.js" style="rounded=0;whiteSpace=wrap;html=1;" vertex="1" parent="1">
          <mxGeometry x="1080" y="360" width="80" height="40" as="geometry"/>
        </mxCell>
        <mxCell id="J3iDojfl_nDklo9Nrg6n-46" value="hotel_offer_&lt;br&gt;by_hotel.js" style="rounded=0;whiteSpace=wrap;html=1;" vertex="1" parent="1">
          <mxGeometry x="1080" y="440" width="80" height="40" as="geometry"/>
        </mxCell>
        <mxCell id="J3iDojfl_nDklo9Nrg6n-47" value="hotel_offers.js" style="rounded=0;whiteSpace=wrap;html=1;" vertex="1" parent="1">
          <mxGeometry x="1080" y="520" width="80" height="40" as="geometry"/>
        </mxCell>
        <mxCell id="J3iDojfl_nDklo9Nrg6n-58" style="edgeStyle=orthogonalEdgeStyle;rounded=0;orthogonalLoop=1;jettySize=auto;html=1;entryX=0.5;entryY=0;entryDx=0;entryDy=0;" edge="1" parent="1" source="J3iDojfl_nDklo9Nrg6n-48" target="J3iDojfl_nDklo9Nrg6n-49">
          <mxGeometry relative="1" as="geometry"/>
        </mxCell>
        <mxCell id="J3iDojfl_nDklo9Nrg6n-48" value="flight_offers" style="rounded=0;whiteSpace=wrap;html=1;" vertex="1" parent="1">
          <mxGeometry x="960" y="600" width="80" height="40" as="geometry"/>
        </mxCell>
        <mxCell id="J3iDojfl_nDklo9Nrg6n-49" value="flight_choice_&lt;br&gt;prediction.js" style="rounded=0;whiteSpace=wrap;html=1;" vertex="1" parent="1">
          <mxGeometry x="960" y="680" width="80" height="40" as="geometry"/>
        </mxCell>
        <mxCell id="J3iDojfl_nDklo9Nrg6n-59" value="location.js" style="rounded=0;whiteSpace=wrap;html=1;" vertex="1" parent="1">
          <mxGeometry x="660" y="360" width="80" height="40" as="geometry"/>
        </mxCell>
        <mxCell id="J3iDojfl_nDklo9Nrg6n-60" value="locations.js" style="rounded=0;whiteSpace=wrap;html=1;" vertex="1" parent="1">
          <mxGeometry x="660" y="440" width="80" height="40" as="geometry"/>
        </mxCell>
        <mxCell id="J3iDojfl_nDklo9Nrg6n-77" style="edgeStyle=orthogonalEdgeStyle;rounded=0;orthogonalLoop=1;jettySize=auto;html=1;entryX=1;entryY=0.5;entryDx=0;entryDy=0;" edge="1" parent="1" source="J3iDojfl_nDklo9Nrg6n-61" target="J3iDojfl_nDklo9Nrg6n-66">
          <mxGeometry relative="1" as="geometry"/>
        </mxCell>
        <mxCell id="J3iDojfl_nDklo9Nrg6n-78" style="edgeStyle=orthogonalEdgeStyle;rounded=0;orthogonalLoop=1;jettySize=auto;html=1;entryX=1;entryY=0.5;entryDx=0;entryDy=0;" edge="1" parent="1" source="J3iDojfl_nDklo9Nrg6n-61" target="J3iDojfl_nDklo9Nrg6n-67">
          <mxGeometry relative="1" as="geometry"/>
        </mxCell>
        <mxCell id="J3iDojfl_nDklo9Nrg6n-79" style="edgeStyle=orthogonalEdgeStyle;rounded=0;orthogonalLoop=1;jettySize=auto;html=1;entryX=1;entryY=0.5;entryDx=0;entryDy=0;" edge="1" parent="1" source="J3iDojfl_nDklo9Nrg6n-61" target="J3iDojfl_nDklo9Nrg6n-68">
          <mxGeometry relative="1" as="geometry"/>
        </mxCell>
        <mxCell id="J3iDojfl_nDklo9Nrg6n-61" value="locations" style="rounded=0;whiteSpace=wrap;html=1;" vertex="1" parent="1">
          <mxGeometry x="660" y="520" width="80" height="40" as="geometry"/>
        </mxCell>
        <mxCell id="J3iDojfl_nDklo9Nrg6n-62" value="airlines.js&lt;span style=&quot;color: rgba(0 , 0 , 0 , 0) ; font-family: monospace ; font-size: 0px ; white-space: nowrap&quot;&gt;%3CmxGraphModel%3E%3Croot%3E%3CmxCell%20id%3D%220%22%2F%3E%3CmxCell%20id%3D%221%22%20parent%3D%220%22%2F%3E%3CmxCell%20id%3D%222%22%20value%3D%22hotel_%26lt%3Bbr%26gt%3Bsentiments.js%22%20style%3D%22rounded%3D0%3BwhiteSpace%3Dwrap%3Bhtml%3D1%3B%22%20vertex%3D%221%22%20parent%3D%221%22%3E%3CmxGeometry%20x%3D%22440%22%20y%3D%22360%22%20width%3D%2280%22%20height%3D%2240%22%20as%3D%22geometry%22%2F%3E%3C%2FmxCell%3E%3C%2Froot%3E%3C%2FmxGraphModel%3E&lt;/span&gt;" style="rounded=0;whiteSpace=wrap;html=1;" vertex="1" parent="1">
          <mxGeometry x="780" y="360" width="80" height="40" as="geometry"/>
        </mxCell>
        <mxCell id="J3iDojfl_nDklo9Nrg6n-63" value="urls.js" style="rounded=0;whiteSpace=wrap;html=1;" vertex="1" parent="1">
          <mxGeometry x="780" y="440" width="80" height="40" as="geometry"/>
        </mxCell>
        <mxCell id="J3iDojfl_nDklo9Nrg6n-76" style="edgeStyle=orthogonalEdgeStyle;rounded=0;orthogonalLoop=1;jettySize=auto;html=1;" edge="1" parent="1" source="J3iDojfl_nDklo9Nrg6n-64" target="J3iDojfl_nDklo9Nrg6n-65">
          <mxGeometry relative="1" as="geometry"/>
        </mxCell>
        <mxCell id="J3iDojfl_nDklo9Nrg6n-64" value="urls" style="rounded=0;whiteSpace=wrap;html=1;" vertex="1" parent="1">
          <mxGeometry x="780" y="520" width="80" height="40" as="geometry"/>
        </mxCell>
        <mxCell id="J3iDojfl_nDklo9Nrg6n-65" value="checkin_&lt;br&gt;links.js" style="rounded=0;whiteSpace=wrap;html=1;" vertex="1" parent="1">
          <mxGeometry x="780" y="600" width="80" height="40" as="geometry"/>
        </mxCell>
        <mxCell id="J3iDojfl_nDklo9Nrg6n-66" value="airports.js" style="rounded=0;whiteSpace=wrap;html=1;" vertex="1" parent="1">
          <mxGeometry x="600" y="600" width="80" height="40" as="geometry"/>
        </mxCell>
        <mxCell id="J3iDojfl_nDklo9Nrg6n-67" value="pois.js" style="rounded=0;whiteSpace=wrap;html=1;" vertex="1" parent="1">
          <mxGeometry x="600" y="680" width="80" height="40" as="geometry"/>
        </mxCell>
        <mxCell id="J3iDojfl_nDklo9Nrg6n-80" style="edgeStyle=orthogonalEdgeStyle;rounded=0;orthogonalLoop=1;jettySize=auto;html=1;entryX=0.5;entryY=0;entryDx=0;entryDy=0;" edge="1" parent="1" source="J3iDojfl_nDklo9Nrg6n-68" target="J3iDojfl_nDklo9Nrg6n-69">
          <mxGeometry relative="1" as="geometry"/>
        </mxCell>
        <mxCell id="J3iDojfl_nDklo9Nrg6n-68" value="points_of_&lt;br&gt;interest" style="rounded=0;whiteSpace=wrap;html=1;" vertex="1" parent="1">
          <mxGeometry x="600" y="760" width="80" height="40" as="geometry"/>
        </mxCell>
        <mxCell id="J3iDojfl_nDklo9Nrg6n-69" value="by_square.js" style="rounded=0;whiteSpace=wrap;html=1;" vertex="1" parent="1">
          <mxGeometry x="600" y="840" width="80" height="40" as="geometry"/>
        </mxCell>
        <mxCell id="J3iDojfl_nDklo9Nrg6n-89" value="analytics.js" style="rounded=0;whiteSpace=wrap;html=1;" vertex="1" parent="1">
          <mxGeometry x="1280" y="360" width="80" height="40" as="geometry"/>
        </mxCell>
        <mxCell id="J3iDojfl_nDklo9Nrg6n-90" value="predictions.js" style="rounded=0;whiteSpace=wrap;html=1;" vertex="1" parent="1">
          <mxGeometry x="1400" y="360" width="80" height="40" as="geometry"/>
        </mxCell>
        <mxCell id="J3iDojfl_nDklo9Nrg6n-108" style="edgeStyle=orthogonalEdgeStyle;rounded=0;orthogonalLoop=1;jettySize=auto;html=1;entryX=0;entryY=0.5;entryDx=0;entryDy=0;" edge="1" parent="1" source="J3iDojfl_nDklo9Nrg6n-91" target="J3iDojfl_nDklo9Nrg6n-93">
          <mxGeometry relative="1" as="geometry"/>
        </mxCell>
        <mxCell id="J3iDojfl_nDklo9Nrg6n-109" style="edgeStyle=orthogonalEdgeStyle;rounded=0;orthogonalLoop=1;jettySize=auto;html=1;entryX=0;entryY=0.5;entryDx=0;entryDy=0;" edge="1" parent="1" source="J3iDojfl_nDklo9Nrg6n-91" target="J3iDojfl_nDklo9Nrg6n-94">
          <mxGeometry relative="1" as="geometry"/>
        </mxCell>
        <mxCell id="J3iDojfl_nDklo9Nrg6n-91" value="analytics" style="rounded=0;whiteSpace=wrap;html=1;" vertex="1" parent="1">
          <mxGeometry x="1400" y="440" width="80" height="40" as="geometry"/>
        </mxCell>
        <mxCell id="J3iDojfl_nDklo9Nrg6n-107" style="edgeStyle=orthogonalEdgeStyle;rounded=0;orthogonalLoop=1;jettySize=auto;html=1;entryX=0.5;entryY=0;entryDx=0;entryDy=0;" edge="1" parent="1" source="J3iDojfl_nDklo9Nrg6n-92" target="J3iDojfl_nDklo9Nrg6n-102">
          <mxGeometry relative="1" as="geometry"/>
        </mxCell>
        <mxCell id="J3iDojfl_nDklo9Nrg6n-92" value="predictions" style="rounded=0;whiteSpace=wrap;html=1;" vertex="1" parent="1">
          <mxGeometry x="1280" y="440" width="80" height="40" as="geometry"/>
        </mxCell>
        <mxCell id="J3iDojfl_nDklo9Nrg6n-93" value="air_traffic.js" style="rounded=0;whiteSpace=wrap;html=1;" vertex="1" parent="1">
          <mxGeometry x="1460" y="520" width="80" height="40" as="geometry"/>
        </mxCell>
        <mxCell id="J3iDojfl_nDklo9Nrg6n-112" style="edgeStyle=orthogonalEdgeStyle;rounded=0;orthogonalLoop=1;jettySize=auto;html=1;entryX=1;entryY=0.5;entryDx=0;entryDy=0;" edge="1" parent="1" source="J3iDojfl_nDklo9Nrg6n-94" target="J3iDojfl_nDklo9Nrg6n-100">
          <mxGeometry relative="1" as="geometry"/>
        </mxCell>
        <mxCell id="J3iDojfl_nDklo9Nrg6n-113" style="edgeStyle=orthogonalEdgeStyle;rounded=0;orthogonalLoop=1;jettySize=auto;html=1;entryX=0;entryY=0.5;entryDx=0;entryDy=0;" edge="1" parent="1" source="J3iDojfl_nDklo9Nrg6n-94" target="J3iDojfl_nDklo9Nrg6n-99">
          <mxGeometry relative="1" as="geometry"/>
        </mxCell>
        <mxCell id="J3iDojfl_nDklo9Nrg6n-114" style="edgeStyle=orthogonalEdgeStyle;rounded=0;orthogonalLoop=1;jettySize=auto;html=1;entryX=1;entryY=0.5;entryDx=0;entryDy=0;" edge="1" parent="1" source="J3iDojfl_nDklo9Nrg6n-94" target="J3iDojfl_nDklo9Nrg6n-95">
          <mxGeometry relative="1" as="geometry"/>
        </mxCell>
        <mxCell id="J3iDojfl_nDklo9Nrg6n-115" style="edgeStyle=orthogonalEdgeStyle;rounded=0;orthogonalLoop=1;jettySize=auto;html=1;entryX=1;entryY=0.5;entryDx=0;entryDy=0;" edge="1" parent="1" source="J3iDojfl_nDklo9Nrg6n-94" target="J3iDojfl_nDklo9Nrg6n-101">
          <mxGeometry relative="1" as="geometry"/>
        </mxCell>
        <mxCell id="J3iDojfl_nDklo9Nrg6n-116" style="edgeStyle=orthogonalEdgeStyle;rounded=0;orthogonalLoop=1;jettySize=auto;html=1;entryX=0;entryY=0.5;entryDx=0;entryDy=0;" edge="1" parent="1" source="J3iDojfl_nDklo9Nrg6n-94" target="J3iDojfl_nDklo9Nrg6n-96">
          <mxGeometry relative="1" as="geometry"/>
        </mxCell>
        <mxCell id="J3iDojfl_nDklo9Nrg6n-94" value="air_traffic" style="rounded=0;whiteSpace=wrap;html=1;" vertex="1" parent="1">
          <mxGeometry x="1460" y="600" width="80" height="40" as="geometry"/>
        </mxCell>
        <mxCell id="J3iDojfl_nDklo9Nrg6n-95" value="booked.js" style="rounded=0;whiteSpace=wrap;html=1;" vertex="1" parent="1">
          <mxGeometry x="1400" y="760" width="80" height="40" as="geometry"/>
        </mxCell>
        <mxCell id="J3iDojfl_nDklo9Nrg6n-96" value="busiest_&lt;br&gt;period.js" style="rounded=0;whiteSpace=wrap;html=1;" vertex="1" parent="1">
          <mxGeometry x="1520" y="760" width="80" height="40" as="geometry"/>
        </mxCell>
        <mxCell id="J3iDojfl_nDklo9Nrg6n-99" value="searched_by_&lt;br&gt;destination.js" style="rounded=0;whiteSpace=wrap;html=1;" vertex="1" parent="1">
          <mxGeometry x="1520" y="680" width="80" height="40" as="geometry"/>
        </mxCell>
        <mxCell id="J3iDojfl_nDklo9Nrg6n-100" value="searched.js" style="rounded=0;whiteSpace=wrap;html=1;" vertex="1" parent="1">
          <mxGeometry x="1400" y="680" width="80" height="40" as="geometry"/>
        </mxCell>
        <mxCell id="J3iDojfl_nDklo9Nrg6n-101" value="traveled.js" style="rounded=0;whiteSpace=wrap;html=1;" vertex="1" parent="1">
          <mxGeometry x="1400" y="840" width="80" height="40" as="geometry"/>
        </mxCell>
        <mxCell id="J3iDojfl_nDklo9Nrg6n-102" value="trip_&lt;br&gt;purpose.js" style="rounded=0;whiteSpace=wrap;html=1;" vertex="1" parent="1">
          <mxGeometry x="1280" y="520" width="80" height="40" as="geometry"/>
        </mxCell>
      </root>
    </mxGraphModel>
  </diagram>
</mxfile>
